<?xml version="1.0" encoding="UTF-8"?>
<svg width="152px" height="25px" viewBox="0 0 152 25" version="1.1" xmlns="http://www.w3.org/2000/svg" xmlns:xlink="http://www.w3.org/1999/xlink">
    <!-- Generator: Sketch 46.2 (44496) - http://www.bohemiancoding.com/sketch -->
    <title>Group</title>
    <desc>Created with Sketch.</desc>
    <defs></defs>
    <g id="Page-1" stroke="none" stroke-width="1" fill="none" fill-rule="evenodd">
        <g id="Group" fill-rule="nonzero">
            <path d="M98,11.3 C100.4,11.3 102.1,10 102.1,8.1 L102.1,8.1 C102.1,6 100.5,4.9 98.1,4.9 L94.4,4.9 L94.4,11.3 L98,11.3 L98,11.3 Z M93.5,4 L98.3,4 C101.2,4 103.2,5.5 103.2,8 L103.2,8 C103.2,10.8 100.8,12.2 98.1,12.2 L94.6,12.2 L94.6,17.1 L93.6,17.1 L93.6,4 L93.5,4 Z" id="Shape" fill="#48494B"></path>
            <polygon id="Shape" fill="#48494B" points="106 4 115.3 4 115.3 4.9 107 4.9 107 10 114.5 10 114.5 10.9 107 10.9 107 16.2 115.4 16.2 115.4 17.1 106 17.1"></polygon>
            <path d="M122.9,16.2 C126.6,16.2 128.9,13.7 128.9,10.6 L128.9,10.6 C128.9,7.5 126.6,4.9 122.9,4.9 L119.5,4.9 L119.5,16.2 L122.9,16.2 Z M118.6,4 L123,4 C127.1,4 130,6.8 130,10.5 L130,10.5 C130,14.2 127.1,17.1 123,17.1 L118.6,17.1 L118.6,4 Z" id="Shape" fill="#48494B"></path>
            <rect id="Rectangle-path" fill="#48494B" x="133.4" y="4" width="1" height="13.1"></rect>
            <path d="M147.3,12.5 L143.8,4.9 L140.3,12.5 L147.3,12.5 Z M143.4,3.9 L144.3,3.9 L150.4,17.1 L149.3,17.1 L147.6,13.4 L139.9,13.4 L138.2,17.1 L137.2,17.1 L143.4,3.9 Z" id="Shape" fill="#48494B"></path>
            <path d="M5.1,14.4 C7.5,14.4 9,12.8 9,10.5 L9,10.5 C9,8.2 7.4,6.6 5.1,6.6 L2.9,6.6 L2.9,14.5 L5.1,14.5 L5.1,14.4 Z M0,3.9 L5.1,3.9 C9.2,3.9 12.1,6.7 12.1,10.4 L12.1,10.4 C12.1,14.1 9.3,16.9 5.1,16.9 L0,16.9 L0,3.9 Z" id="Shape" fill="#7DAAD8"></path>
            <path d="M25,10.5 L25,10.5 C25,8.2 23.4,6.3 21,6.3 C18.7,6.3 17.1,8.1 17.1,10.4 L17.1,10.4 C17.1,12.6 18.7,14.5 21.1,14.5 C23.4,14.6 25,12.8 25,10.5 M14.1,10.5 L14.1,10.5 C14.1,6.7 17,3.7 21.1,3.7 C25.2,3.7 28,6.7 28,10.4 L28,10.4 C28,14.1 25.1,17.2 21,17.2 C17,17.2 14.1,14.2 14.1,10.5" id="Shape" fill="#7DAAD8"></path>
            <path d="M30,10.5 L30,10.5 C30,6.7 32.8,3.7 36.8,3.7 C39.3,3.7 40.7,4.5 42,5.7 L40.2,7.8 C39.2,6.9 38.2,6.3 36.8,6.3 C34.6,6.3 33,8.1 33,10.4 L33,10.4 C33,12.6 34.6,14.5 36.8,14.5 C38.3,14.5 39.2,13.9 40.2,13 L42,14.9 C40.7,16.3 39.2,17.2 36.6,17.2 C32.8,17.2 30,14.3 30,10.5" id="Shape" fill="#7DAAD8"></path>
            <polygon id="Shape" fill="#7DAAD8" points="47.4 6.6 43.4 6.6 43.4 3.9 54.3 3.9 54.3 6.6 50.3 6.6 50.3 17 47.4 17"></polygon>
            <path d="M84.3,10.3 C85.7,10.3 86.5,9.6 86.5,8.4 L86.5,8.4 C86.5,7.2 85.6,6.5 84.2,6.5 L81.3,6.5 L81.3,10.3 L84.3,10.3 Z M78.5,3.9 L84.5,3.9 C86.2,3.9 87.5,4.4 88.3,5.2 C89,5.9 89.4,7 89.4,8.2 L89.4,8.2 C89.4,10.3 88.3,11.6 86.6,12.3 L89.8,17 L86.4,17 L83.6,12.8 L83.6,12.8 L81.4,12.8 L81.4,17 L78.5,17 L78.5,3.9 L78.5,3.9 Z" id="Shape" fill="#7DAAD8"></path>
            <path d="M70.8,11.9 L74.6,11.9 C74,16.3 70.2,19.6 65.7,19.6 C61.2,19.6 57.4,16.2 56.8,11.9 L60.6,11.9 C60.4,11.6 60.3,11.4 60.2,11.1 L56.8,11.1 C56.8,10.9 56.8,10.8 56.8,10.6 C56.8,5.6 60.8,1.6 65.8,1.6 C70.8,1.6 74.8,5.6 74.8,10.6 C74.8,10.8 74.8,10.9 74.8,11.1 L71.4,11.1 M79.3,21.6 L73.8,16.1 C74.9,14.5 75.5,12.6 75.5,10.6 C75.5,5.2 71.1,0.8 65.7,0.8 C60.3,0.8 55.9,5.2 55.9,10.6 C55.9,16 60.3,20.4 65.7,20.4 C67.9,20.4 70,19.6 71.6,18.4 L77.1,23.9 C77.3,24.1 77.7,24.1 77.9,23.9 L79.4,22.4 C79.5,22.2 79.5,21.8 79.3,21.6" id="Shape" fill="#48494B"></path>
            <path d="M64.5,13 L67.1,7.7 L68.5,11.1 L71.2,11.1 C71.2,11 71.3,10.9 71.3,10.8 C72.2,8.9 71.4,6.5 69.4,5.7 C67.1,4.8 65.6,6.9 65.6,6.9 C65.6,6.9 64.1,4.7 61.8,5.7 C59.8,6.5 59,8.9 59.9,10.8 C59.9,10.9 60,11 60,11.1 L63.5,11.1 L64.5,13 Z" id="Shape" fill="#7DAAD8"></path>
            <path d="M71.2,11.1 C71.1,11.4 70.9,11.6 70.8,11.9 L68,11.9 L67,9.6 L64.5,14.8 L63.1,11.9 L60.6,11.9 C61.5,13.4 63.1,15.1 65.7,17 C68.3,15.1 69.9,13.4 70.8,11.9" id="Shape" fill="#7DAAD8"></path>
            <path d="M147.6,3.9 L147.6,4.1 L148.2,4.1 L148.2,5.9 L148.4,5.9 L148.4,4.1 L149,4.1 L149,3.9 L147.6,3.9 Z M151.3,3.9 L150.5,5.1 L149.7,3.9 L149.5,3.9 L149.5,5.9 L149.7,5.9 L149.7,4.3 L150.5,5.4 L150.5,5.4 L151.3,4.3 L151.3,5.9 L151.5,5.9 L151.5,3.9 L151.3,3.9 Z" id="Shape" fill="#48494B"></path>
        </g>
    </g>
</svg>