<?xml version="1.0" encoding="UTF-8"?>
<svg width="147px" height="23px" viewBox="0 0 147 23" version="1.1" xmlns="http://www.w3.org/2000/svg" xmlns:xlink="http://www.w3.org/1999/xlink">
    <!-- Generator: Sketch 46.2 (44496) - http://www.bohemiancoding.com/sketch -->
    <title>Group</title>
    <desc>Created with Sketch.</desc>
    <defs></defs>
    <g id="Page-1" stroke="none" stroke-width="1" fill="none" fill-rule="evenodd">
        <g id="Group" fill-rule="nonzero" fill="#FFFFFF">
            <path d="M94.6719021,10.3833745 C96.9781724,10.3833745 98.6117806,9.13414477 98.6117806,7.30834742 L98.6117806,7.30834742 C98.6117806,5.29036086 97.074267,4.23332029 94.7679967,4.23332029 L91.2124965,4.23332029 L91.2124965,10.3833745 L94.6719021,10.3833745 L94.6719021,10.3833745 Z M90.3476452,3.36846891 L94.9601858,3.36846891 C97.7469292,3.36846891 99.6688211,4.80988788 99.6688211,7.21225282 L99.6688211,7.21225282 C99.6688211,9.90290155 97.3625508,11.2482259 94.7679967,11.2482259 L91.4046857,11.2482259 L91.4046857,15.9568612 L90.4437398,15.9568612 L90.4437398,3.36846891 L90.3476452,3.36846891 Z" id="Shape"></path>
            <polygon id="Shape" points="102.35947 3.36846891 111.296267 3.36846891 111.296267 4.23332029 103.320416 4.23332029 103.320416 9.13414477 110.527511 9.13414477 110.527511 9.99899615 103.320416 9.99899615 103.320416 15.0920098 111.392362 15.0920098 111.392362 15.9568612 102.35947 15.9568612"></polygon>
            <path d="M118.599457,15.0920098 C122.154957,15.0920098 124.365133,12.6896449 124.365133,9.71071236 L124.365133,9.71071236 C124.365133,6.73177983 122.154957,4.23332029 118.599457,4.23332029 L115.332241,4.23332029 L115.332241,15.0920098 L118.599457,15.0920098 Z M114.467389,3.36846891 L118.695551,3.36846891 C122.63543,3.36846891 125.422173,6.05911765 125.422173,9.61461776 L125.422173,9.61461776 C125.422173,13.1701179 122.63543,15.9568612 118.695551,15.9568612 L114.467389,15.9568612 L114.467389,3.36846891 Z" id="Shape"></path>
            <rect id="Rectangle-path" x="128.68939" y="3.36846891" width="1" height="12.5883923"></rect>
            <path d="M142.046539,11.5365097 L138.683228,4.23332029 L135.319917,11.5365097 L142.046539,11.5365097 Z M138.298849,3.27237431 L139.163701,3.27237431 L145.025471,15.9568612 L143.968431,15.9568612 L142.334823,12.4013611 L134.935538,12.4013611 L133.30193,15.9568612 L132.340984,15.9568612 L138.298849,3.27237431 Z" id="Shape"></path>
            <path d="M5.40002076,13.3623071 C7.70629111,13.3623071 9.14771008,11.8247935 9.14771008,9.61461776 L9.14771008,9.61461776 C9.14771008,7.40444201 7.61019651,5.86692845 5.40002076,5.86692845 L3.28593961,5.86692845 L3.28593961,13.4584017 L5.40002076,13.4584017 L5.40002076,13.3623071 Z M0.49919628,3.27237431 L5.40002076,3.27237431 C9.33989927,3.27237431 12.1266426,5.96302305 12.1266426,9.51852316 L12.1266426,9.51852316 C12.1266426,13.0740233 9.43599387,15.764672 5.40002076,15.764672 L0.49919628,15.764672 L0.49919628,3.27237431 Z" id="Shape"></path>
            <path d="M24.5228457,9.61461776 L24.5228457,9.61461776 C24.5228457,7.40444201 22.9853321,5.57864466 20.6790618,5.57864466 C18.4688861,5.57864466 16.9313725,7.30834742 16.9313725,9.51852316 L16.9313725,9.51852316 C16.9313725,11.6326043 18.4688861,13.4584017 20.7751564,13.4584017 C22.9853321,13.5544963 24.5228457,11.8247935 24.5228457,9.61461776 M14.0485346,9.61461776 L14.0485346,9.61461776 C14.0485346,5.96302305 16.8352779,3.08018512 20.7751564,3.08018512 C24.7150349,3.08018512 27.4056836,5.96302305 27.4056836,9.51852316 L27.4056836,9.51852316 C27.4056836,13.0740233 24.6189403,16.0529558 20.6790618,16.0529558 C16.8352779,16.0529558 14.0485346,13.1701179 14.0485346,9.61461776" id="Shape"></path>
            <path d="M29.3275756,9.61461776 L29.3275756,9.61461776 C29.3275756,5.96302305 32.0182243,3.08018512 35.8620082,3.08018512 C38.2643732,3.08018512 39.6096976,3.8489419 40.8589273,5.00207707 L39.1292246,7.02006362 C38.1682786,6.15521224 37.2073326,5.57864466 35.8620082,5.57864466 C33.7479271,5.57864466 32.2104135,7.30834742 32.2104135,9.51852316 L32.2104135,9.51852316 C32.2104135,11.6326043 33.7479271,13.4584017 35.8620082,13.4584017 C37.3034272,13.4584017 38.1682786,12.8818341 39.1292246,12.0169827 L40.8589273,13.8427801 C39.6096976,15.1881044 38.1682786,16.0529558 35.669819,16.0529558 C32.0182243,16.0529558 29.3275756,13.2662125 29.3275756,9.61461776" id="Shape"></path>
            <polygon id="Shape" points="46.0480356 5.86692845 42.2042517 5.86692845 42.2042517 3.27237431 52.6785628 3.27237431 52.6785628 5.86692845 48.8347789 5.86692845 48.8347789 15.8607666 46.0480356 15.8607666"></polygon>
            <path d="M81.5069422,9.42242857 C82.8522665,9.42242857 83.6210233,8.74976638 83.6210233,7.59663121 L83.6210233,7.59663121 C83.6210233,6.44349604 82.7561719,5.77083385 81.4108476,5.77083385 L78.6241042,5.77083385 L78.6241042,9.42242857 L81.5069422,9.42242857 Z M75.9334555,3.27237431 L81.6991314,3.27237431 C83.3327395,3.27237431 84.5819693,3.7528473 85.3507261,4.52160408 C86.0233883,5.19426627 86.4077666,6.25130684 86.4077666,7.40444201 L86.4077666,7.40444201 C86.4077666,9.42242857 85.3507261,10.6716583 83.7171179,11.3443205 L86.792145,15.8607666 L83.5249287,15.8607666 L80.83428,11.8247935 L80.83428,11.8247935 L78.7201988,11.8247935 L78.7201988,15.8607666 L75.9334555,15.8607666 L75.9334555,3.27237431 L75.9334555,3.27237431 Z" id="Shape"></path>
            <path d="M68.5341715,10.9599421 L72.1857662,10.9599421 C71.6091986,15.1881044 67.9576039,18.3592262 63.633347,18.3592262 C59.3090901,18.3592262 55.6574954,15.0920098 55.0809278,10.9599421 L58.7325225,10.9599421 C58.5403333,10.6716583 58.4442387,10.4794691 58.3481441,10.1911853 L55.0809278,10.1911853 C55.0809278,9.99899615 55.0809278,9.90290155 55.0809278,9.71071236 C55.0809278,4.90598247 58.9247117,1.06219856 63.7294416,1.06219856 C68.5341715,1.06219856 72.3779554,4.90598247 72.3779554,9.71071236 C72.3779554,9.90290155 72.3779554,9.99899615 72.3779554,10.1911853 L69.1107391,10.1911853 M76.7022123,20.2811181 L71.4170094,14.9959152 C72.47405,13.4584017 73.0506176,11.6326043 73.0506176,9.71071236 C73.0506176,4.52160408 68.8224553,0.293441782 63.633347,0.293441782 C58.4442387,0.293441782 54.2160764,4.52160408 54.2160764,9.71071236 C54.2160764,14.8998206 58.4442387,19.1279829 63.633347,19.1279829 C65.7474281,19.1279829 67.7654147,18.3592262 69.3029283,17.206091 L74.5881311,22.4912939 C74.7803203,22.6834831 75.1646987,22.6834831 75.3568879,22.4912939 L76.7983069,21.0498749 C76.8944015,20.8576857 76.8944015,20.4733073 76.7022123,20.2811181" id="Shape"></path>
            <path d="M62.4802118,12.0169827 L64.9786714,6.92396903 L66.3239957,10.1911853 L68.9185499,10.1911853 C68.9185499,10.0950908 69.0146445,9.99899615 69.0146445,9.90290155 C69.8794958,8.0771042 69.1107391,5.77083385 67.1888471,5.00207707 C64.9786714,4.13722569 63.5372524,6.15521224 63.5372524,6.15521224 C63.5372524,6.15521224 62.0958334,4.04113109 59.8856577,5.00207707 C57.9637657,5.77083385 57.1950089,8.0771042 58.0598603,9.90290155 C58.0598603,9.99899615 58.1559549,10.0950908 58.1559549,10.1911853 L61.5192658,10.1911853 L62.4802118,12.0169827 Z" id="Shape"></path>
            <path d="M68.9185499,10.1911853 C68.8224553,10.4794691 68.6302661,10.6716583 68.5341715,10.9599421 L65.8435227,10.9599421 L64.8825768,8.74976638 L62.4802118,13.7466855 L61.1348874,10.9599421 L58.7325225,10.9599421 C59.5973739,12.4013611 61.1348874,14.0349693 63.633347,15.8607666 C66.1318065,14.0349693 67.6693201,12.4013611 68.5341715,10.9599421" id="Shape"></path>
            <path d="M142.334823,3.27237431 L142.334823,3.46456351 L142.91139,3.46456351 L142.91139,5.19426627 L143.103579,5.19426627 L143.103579,3.46456351 L143.680147,3.46456351 L143.680147,3.27237431 L142.334823,3.27237431 Z M145.890323,3.27237431 L145.121566,4.42550948 L144.352809,3.27237431 L144.16062,3.27237431 L144.16062,5.19426627 L144.352809,5.19426627 L144.352809,3.6567527 L145.121566,4.71379328 L145.121566,4.71379328 L145.890323,3.6567527 L145.890323,5.19426627 L146.082512,5.19426627 L146.082512,3.27237431 L145.890323,3.27237431 Z" id="Shape"></path>
        </g>
    </g>
</svg>