<?xml version="1.0" encoding="UTF-8"?>
<svg width="179px" height="15px" viewBox="0 0 179 15" version="1.1" xmlns="http://www.w3.org/2000/svg" xmlns:xlink="http://www.w3.org/1999/xlink">
    <!-- Generator: Sketch 46.2 (44496) - http://www.bohemiancoding.com/sketch -->
    <title>Group</title>
    <desc>Created with Sketch.</desc>
    <defs></defs>
    <g id="Page-1" stroke="none" stroke-width="1" fill="none" fill-rule="evenodd">
        <g id="Group">
            <path d="M9.99519717,1.15587884 C11.1186908,1.75823383 11.9985219,2.60084138 12.6347171,3.68372676 C13.2709123,4.76661215 13.5890051,5.99160786 13.5890051,7.35875066 C13.5890051,8.72589345 13.2675283,9.9475052 12.6245651,11.0236226 C11.9816019,12.0997399 11.0916188,12.9423475 9.95458917,13.5514705 C8.81755952,14.1605935 7.52488448,14.4651505 6.07652528,14.4651505 L0.269581449,14.4651505 L0.269581449,0.252350864 L6.17804528,0.252350864 C7.59933234,0.252350864 8.87170358,0.553523844 9.99519717,1.15587884 Z M8.58406921,11.4703105 C9.28117667,11.0709966 9.82599521,10.5160261 10.2185412,9.80538259 C10.6110871,9.09473905 10.8073571,8.28597117 10.8073571,7.37905466 C10.8073571,6.47213815 10.6043192,5.65660233 10.1982372,4.93242273 C9.79215514,4.20824313 9.23380074,3.64650476 8.52315721,3.24719078 C7.81251368,2.84787679 7.01728165,2.64822279 6.13743728,2.64822279 L2.99031737,2.64822279 L2.99031737,12.0692785 L6.23895728,12.0692785 C7.10526558,12.0692785 7.88696174,11.8696245 8.58406921,11.4703105 Z M17.164573,0.252350864 L19.885309,0.252350864 L19.885309,14.4651505 L17.164573,14.4651505 L17.164573,0.252350864 Z M35.0950686,14.4651505 L33.8362206,11.4601585 L26.8922528,11.4601585 L25.6334049,14.4651505 L22.811149,14.4651505 L29.0444768,0.252350864 L31.8667327,0.252350864 L38.0188445,14.4651505 L35.0950686,14.4651505 Z M27.8668448,9.12519861 L32.8616287,9.12519861 L30.3845407,3.15582278 L27.8668448,9.12519861 Z M50.8428842,1.20663884 C51.7159606,1.842834 52.1524922,2.70912931 52.1524922,3.80555076 C52.1524922,4.59064266 51.9325344,5.26405191 51.4926122,5.8257987 C51.05269,6.3875455 50.4469601,6.76316573 49.6754043,6.95267067 C50.622929,7.12863954 51.3640175,7.53471547 51.8986922,8.17091063 C52.4333669,8.8071058 52.7007002,9.59895386 52.7007002,10.5464786 C52.7007002,11.7647246 52.2303289,12.722387 51.2895722,13.4194945 C50.3488155,14.1166019 49.0662924,14.4651505 47.4419643,14.4651505 L40.9446845,14.4651505 L40.9446845,0.252350864 L47.2592283,0.252350864 C48.7752679,0.252350864 49.9698079,0.570443674 50.8428842,1.20663884 Z M48.7718763,5.59230271 C49.1711903,5.28097316 49.3708443,4.84782551 49.3708443,4.29284675 C49.3708443,3.75140406 49.1711903,3.33179226 48.7718763,3.03399878 C48.3725623,2.7362053 47.8209758,2.59407873 47.1171003,2.6076148 L43.6654204,2.6076148 L43.6654204,6.0592947 L47.1171003,6.0592947 C47.8209758,6.0592947 48.3725623,5.90363226 48.7718763,5.59230271 Z M49.1475003,11.6225905 C49.6347987,11.2841889 49.8784443,10.8104336 49.8784443,10.2013106 C49.8784443,9.61925968 49.6347987,9.16242426 49.1475003,8.83079062 C48.6602019,8.49915697 47.9834086,8.34011056 47.1171003,8.35364663 L43.6654204,8.35364663 L43.6654204,12.1098865 L47.1171003,12.1098865 C47.9834086,12.1234226 48.6602019,11.9609922 49.1475003,11.6225905 Z M56.5402201,0.252350864 L66.9561718,0.252350864 L66.9561718,2.6279188 L59.2609561,2.6279188 L59.2609561,6.14051069 L66.1643159,6.14051069 L66.1643159,8.51607862 L59.2609561,8.51607862 L59.2609561,12.0895825 L67.1998198,12.0895825 L67.1998198,14.4651505 L56.5402201,14.4651505 L56.5402201,0.252350864 Z M69.5774519,0.252350864 L81.1710355,0.252350864 L81.1710355,2.66852679 L76.7447636,2.66852679 L76.7447636,14.4651505 L74.0037237,14.4651505 L74.0037237,2.66852679 L69.5774519,2.66852679 L69.5774519,0.252350864 Z M84.2999155,0.252350864 L94.7158672,0.252350864 L94.7158672,2.6279188 L87.0206514,2.6279188 L87.0206514,6.14051069 L93.9240112,6.14051069 L93.9240112,8.51607862 L87.0206514,8.51607862 L87.0206514,12.0895825 L94.9595152,12.0895825 L94.9595152,14.4651505 L84.2999155,14.4651505 L84.2999155,0.252350864 Z M105.611027,2.87156679 C104.846239,2.62791758 104.17283,2.5060948 103.590779,2.5060948 C102.941048,2.5060948 102.426685,2.62791758 102.047675,2.87156679 C101.668665,3.115216 101.479163,3.45361261 101.479163,3.88676676 C101.479163,4.27931271 101.611138,4.60755742 101.875091,4.87151073 C102.139044,5.13546404 102.470673,5.35203787 102.869987,5.52123871 C103.269301,5.69043955 103.81412,5.87655769 104.504459,6.0795987 C105.46552,6.36385611 106.253984,6.64810926 106.869875,6.93236667 C107.485766,7.21662408 108.010281,7.63623588 108.443435,8.19121463 C108.876589,8.74619339 109.093163,9.47713006 109.093163,10.3840466 C109.093163,11.2503549 108.859669,12.0049793 108.392675,12.6479425 C107.925681,13.2909057 107.282727,13.7815808 106.463795,14.1199825 C105.644863,14.4583841 104.707504,14.6275824 103.651691,14.6275824 C102.541734,14.6275824 101.458864,14.4211605 100.403051,14.0083105 C99.3472379,13.5954604 98.4267991,13.0438739 97.6417072,12.3535345 L98.7787312,10.0388786 C99.4961427,10.7021459 100.301527,11.2232767 101.194907,11.6022865 C102.088288,11.9812964 102.920743,12.1707985 103.692299,12.1707985 C104.450319,12.1707985 105.045897,12.025288 105.479051,11.7342625 C105.912205,11.4432371 106.128779,11.0473131 106.128779,10.5464786 C106.128779,10.1403965 105.996804,9.80538391 105.732851,9.54143059 C105.468898,9.27747728 105.133885,9.06428742 104.727803,8.90185461 C104.321721,8.73942181 103.766751,8.55668764 103.062875,8.35364663 C102.101814,8.06938922 101.316734,7.791904 100.707611,7.52118265 C100.098488,7.25046131 99.5773573,6.84100141 99.1442032,6.29279069 C98.711049,5.74457996 98.4944752,5.02379519 98.4944752,4.13041475 C98.4944752,3.30471465 98.714433,2.58392988 99.1543552,1.96803881 C99.5942773,1.35214775 100.216927,0.875008538 101.022323,0.536606856 C101.827719,0.198205174 102.75831,0.0290068709 103.814123,0.0290068709 C104.734576,0.0290068709 105.644862,0.164365513 106.545011,0.435086859 C107.445159,0.705808205 108.247159,1.07127654 108.951035,1.53150283 L107.854619,3.90707076 C107.123671,3.46038054 106.375815,3.115216 105.611027,2.87156679 Z" id="DIABETESPEDIA-Copy" fill="#7CA9D9"></path>
            <path d="M122.536712,1.47772895 C123.481858,2.28407671 123.954423,3.41757316 123.954423,4.87825229 C123.954423,6.36536906 123.481858,7.52199809 122.536712,8.34817407 C121.591567,9.17435005 120.259791,9.58743184 118.541345,9.58743184 L114.129588,9.58743184 L114.129588,14.4651505 L113.723111,14.4651505 L113.723111,0.268213364 L118.541345,0.268213364 C120.259791,0.268213364 121.591567,0.671381196 122.536712,1.47772895 Z M114.129588,9.19086935 L118.541345,9.19086935 C120.140822,9.19086935 121.375111,8.81413876 122.244248,8.06066626 C123.113385,7.30719377 123.547947,6.24639972 123.547947,4.87825229 C123.547947,3.5365425 123.111732,2.50053336 122.239291,1.77019379 C121.366849,1.03985422 120.134213,0.674689915 118.541345,0.674689915 L114.129588,0.674689915 L114.129588,9.19086935 Z" id="Combined-Shape" fill="#48494B"></path>
            <polygon id="Path" fill="#48494B" points="128.763142 0.674689915 128.763142 6.9502913 136.297829 6.9502913 136.297829 7.35676785 128.763142 7.35676785 128.763142 14.0586739 137.517259 14.0586739 137.517259 14.4651505 128.356666 14.4651505 128.356666 0.268213364 137.229751 0.268213364 137.229751 0.674689915"></polygon>
            <path d="M151.843477,1.22492037 C152.953858,1.86272823 153.837853,2.72689534 154.495489,3.81744764 C155.153125,4.90799993 155.481938,6.09437085 155.481938,7.37659597 C155.481938,8.65221169 155.153125,9.83362562 154.495489,10.9208732 C153.837853,12.0081208 152.953858,12.8706356 151.843477,13.5084434 C150.733097,14.1462513 149.520289,14.4651505 148.205017,14.4651505 L142.6234,14.4651505 L142.6234,0.268213364 L148.205017,0.268213364 C149.520289,0.268213364 150.733097,0.587112509 151.843477,1.22492037 Z M143.029876,14.0586739 L148.205017,14.0586739 C149.434366,14.0586739 150.577777,13.7579504 151.635282,13.1564942 C152.692787,12.5550381 153.530517,11.7437455 154.148497,10.722592 C154.766477,9.70143845 155.075462,8.58611761 155.075462,7.37659597 C155.075462,6.17368374 154.766477,5.05836289 154.148497,4.03059997 C153.530517,3.00283705 152.69444,2.18658743 151.640239,1.58182661 C150.586039,0.977065788 149.440976,0.674689915 148.205017,0.674689915 L143.029876,0.674689915 L143.029876,14.0586739 Z" id="Combined-Shape" fill="#48494B"></path>
            <polygon id="Path" fill="#48494B" points="160.280743 14.4651505 160.280743 0.268213364 160.687219 0.268213364 160.687219 14.4651505"></polygon>
            <path d="M167.141672,10.1426193 L165.178688,14.4651505 L164.682985,14.4651505 L171.18661,0.268213364 L171.632743,0.268213364 L178.205766,14.4651505 L177.739805,14.4651505 L175.756993,10.1426193 L167.141672,10.1426193 Z M171.404719,0.74408835 L167.33004,9.73614278 L175.568625,9.73614278 L171.404719,0.74408835 Z" id="Combined-Shape" fill="#48494B"></path>
        </g>
    </g>
</svg>